<?xml version="1.0" encoding="utf-8"?>
<!-- Generator: Adobe Illustrator 16.0.0, SVG Export Plug-In . SVG Version: 6.00 Build 0)  -->
<!DOCTYPE svg PUBLIC "-//W3C//DTD SVG 1.1//EN" "http://www.w3.org/Graphics/SVG/1.1/DTD/svg11.dtd">
<svg version="1.1" xmlns="http://www.w3.org/2000/svg" xmlns:xlink="http://www.w3.org/1999/xlink" x="0px" y="0px"
	 width="182.499px" height="35.667px" viewBox="0 0 182.499 35.667" enable-background="new 0 0 182.499 35.667"
	 xml:space="preserve">
<g id="Layer_2" display="none">
	<rect x="-147.333" y="-37.667" display="inline" fill="#00609C" width="405.667" height="127.333"/>
</g>
<g id="Laag_1">
	<path fill="#F2F2F2" d="M26.997,2.712c-1.376-1.018-4.3-2.221-8.741-2.221c-9.865,0-17.863,7.787-17.863,17.395
		c0,8.658,6.495,15.836,15,17.172C10.415,32.99,4.078,28.835,3.74,21.029c-0.01-0.217-0.016-0.436-0.016-0.656
		c0-8.721,8.07-10.633,10.034-10.785c1.964-0.15,3.222,0.113,5.251,1.031c2.632,1.189,7.151,1.871,9.471-1.406
		C30.804,5.93,28.374,3.732,26.997,2.712z"/>
	<path fill="none" d="M29.563,30.449c-0.004,0.002-0.008,0.004-0.008,0.004S29.559,30.451,29.563,30.449z"/>
	<path fill="#F8F8F8" d="M29.563,28.564c0.18-0.064,3.075-1.283,5.365-9.504c0,0-3.797,7.157-10.438,8.944
		c0,0,6.002-3.387,7.273-8.006c0,0-7.221,7.971-16.035,7.971c-5.228,0-9.432-3.826-11.988-6.939
		c0.338,7.807,6.675,11.961,11.652,14.029c0.932,0.146,1.889,0.223,2.863,0.223c8.07,0,14.891-5.211,17.106-12.367
		c0.079-0.254,0.149-0.512,0.216-0.771C32.797,27.224,29.707,28.515,29.563,28.564"/>
	<g>
		<path fill="#F9F9F9" d="M58.646,18.878c0.226,0.485,0.412,0.984,0.56,1.495c0.147,0.512,0.255,1.027,0.325,1.547
			c-0.902,0.33-1.712,0.546-2.432,0.65c-0.719,0.104-1.494,0.155-2.326,0.155c-1.474,0-2.766-0.238-3.875-0.715
			s-2.041-1.144-2.795-2.002c-0.754-0.857-1.321-1.876-1.703-3.055c-0.381-1.179-0.571-2.461-0.571-3.848s0.199-2.674,0.599-3.861
			c0.398-1.188,0.975-2.214,1.729-3.081c0.754-0.867,1.681-1.542,2.781-2.028c1.102-0.485,2.354-0.728,3.758-0.728
			c0.832,0,1.599,0.052,2.301,0.156s1.46,0.321,2.275,0.65c-0.035,0.52-0.139,1.027-0.313,1.521
			c-0.174,0.494-0.363,0.993-0.572,1.496c-0.606-0.208-1.144-0.355-1.611-0.442c-0.469-0.087-1.023-0.13-1.664-0.13
			c-1.664,0-2.943,0.542-3.836,1.625s-1.338,2.69-1.338,4.823c0,4.229,1.793,6.344,5.381,6.344c0.642,0,1.205-0.043,1.691-0.13
			C57.494,19.233,58.04,19.086,58.646,18.878z"/>
		<path fill="#F9F9F9" d="M70.658,22.726c-1.092,0-2.041-0.178-2.846-0.532c-0.807-0.355-1.475-0.85-2.002-1.482
			c-0.529-0.633-0.928-1.373-1.197-2.223c-0.268-0.85-0.402-1.769-0.402-2.756c0-0.988,0.135-1.915,0.402-2.782
			c0.27-0.866,0.668-1.616,1.197-2.249c0.527-0.633,1.195-1.131,2.002-1.495c0.805-0.364,1.754-0.546,2.846-0.546
			c1.094,0,2.045,0.182,2.861,0.546c0.814,0.364,1.49,0.862,2.027,1.495s0.936,1.383,1.195,2.249
			c0.262,0.867,0.391,1.794,0.391,2.782c0,0.987-0.129,1.906-0.391,2.756c-0.26,0.85-0.658,1.59-1.195,2.223
			s-1.213,1.127-2.027,1.482C72.703,22.548,71.752,22.726,70.658,22.726z M70.658,19.918c0.971,0,1.668-0.359,2.094-1.079
			c0.424-0.719,0.637-1.755,0.637-3.106c0-1.353-0.213-2.388-0.637-3.107c-0.426-0.719-1.123-1.079-2.094-1.079
			c-0.953,0-1.643,0.36-2.066,1.079c-0.424,0.72-0.637,1.755-0.637,3.107c0,1.352,0.213,2.388,0.637,3.106
			C69.016,19.559,69.705,19.918,70.658,19.918z"/>
		<path fill="#F9F9F9" d="M82.905,8.972c0.242-0.052,0.484-0.091,0.728-0.116c0.243-0.026,0.511-0.039,0.806-0.039
			s0.555,0.013,0.78,0.039c0.226,0.025,0.459,0.064,0.702,0.116c0.052,0.087,0.1,0.213,0.143,0.377
			c0.044,0.165,0.083,0.339,0.117,0.521c0.035,0.182,0.065,0.359,0.091,0.533c0.026,0.173,0.048,0.32,0.065,0.441
			c0.139-0.26,0.32-0.52,0.546-0.779c0.226-0.261,0.494-0.494,0.806-0.702c0.313-0.208,0.663-0.377,1.054-0.507
			c0.39-0.131,0.827-0.195,1.313-0.195c2.098,0,3.44,0.798,4.03,2.392c0.347-0.641,0.836-1.2,1.469-1.677s1.435-0.715,2.405-0.715
			c1.525,0,2.647,0.42,3.367,1.261c0.719,0.841,1.079,2.154,1.079,3.939v8.554c-0.624,0.104-1.24,0.156-1.847,0.156
			s-1.222-0.053-1.846-0.156v-7.592c0-0.937-0.117-1.655-0.351-2.158c-0.234-0.503-0.707-0.754-1.417-0.754
			c-0.295,0-0.585,0.043-0.871,0.13s-0.546,0.247-0.78,0.481c-0.234,0.233-0.425,0.563-0.572,0.987
			c-0.147,0.425-0.221,0.976-0.221,1.651v7.254c-0.624,0.104-1.239,0.156-1.846,0.156c-0.607,0-1.223-0.053-1.847-0.156v-7.592
			c0-0.937-0.116-1.655-0.351-2.158s-0.706-0.754-1.417-0.754c-0.295,0-0.59,0.043-0.884,0.13c-0.295,0.087-0.56,0.256-0.793,0.507
			c-0.234,0.252-0.421,0.603-0.56,1.053c-0.139,0.451-0.208,1.04-0.208,1.769v7.046c-0.624,0.104-1.239,0.156-1.846,0.156
			c-0.607,0-1.222-0.053-1.846-0.156V8.972z"/>
		<path fill="#F9F9F9" d="M111.557,16.824c0.069,1.04,0.434,1.794,1.092,2.262c0.659,0.468,1.525,0.702,2.601,0.702
			c0.589,0,1.191-0.056,1.807-0.169c0.615-0.112,1.2-0.273,1.755-0.481c0.19,0.348,0.355,0.764,0.494,1.248
			c0.139,0.485,0.217,1.006,0.234,1.561c-1.353,0.52-2.878,0.779-4.576,0.779c-1.248,0-2.318-0.173-3.211-0.52
			s-1.621-0.827-2.185-1.443c-0.563-0.614-0.979-1.347-1.247-2.196c-0.27-0.85-0.403-1.777-0.403-2.782
			c0-0.988,0.139-1.915,0.416-2.782c0.277-0.866,0.688-1.62,1.234-2.262c0.547-0.642,1.223-1.148,2.028-1.521
			c0.806-0.372,1.746-0.559,2.821-0.559c0.936,0,1.768,0.165,2.496,0.494c0.728,0.329,1.348,0.779,1.858,1.352
			c0.512,0.572,0.897,1.253,1.157,2.041c0.26,0.789,0.39,1.634,0.39,2.535c0,0.329-0.013,0.654-0.038,0.975
			c-0.026,0.321-0.057,0.577-0.092,0.768H111.557z M116.835,14.25c-0.035-0.832-0.265-1.504-0.689-2.015
			c-0.425-0.512-1.019-0.768-1.78-0.768c-0.867,0-1.525,0.243-1.977,0.729s-0.72,1.17-0.806,2.054H116.835z"/>
		<path fill="#F9F9F9" d="M126.091,8.972c0.242-0.052,0.484-0.091,0.728-0.116c0.243-0.026,0.511-0.039,0.806-0.039
			s0.555,0.013,0.78,0.039c0.226,0.025,0.459,0.064,0.702,0.116c0.052,0.087,0.1,0.213,0.143,0.377
			c0.044,0.165,0.083,0.339,0.117,0.521c0.035,0.182,0.065,0.359,0.091,0.533c0.026,0.173,0.048,0.32,0.065,0.441
			c0.173-0.26,0.381-0.52,0.624-0.779c0.242-0.261,0.524-0.494,0.845-0.702c0.321-0.208,0.681-0.377,1.079-0.507
			c0.398-0.131,0.841-0.195,1.326-0.195c1.525,0,2.674,0.416,3.445,1.248c0.771,0.832,1.156,2.141,1.156,3.926v8.58
			c-0.624,0.104-1.239,0.156-1.846,0.156s-1.222-0.053-1.846-0.156v-7.592c0-0.937-0.144-1.655-0.429-2.158
			c-0.286-0.503-0.785-0.754-1.495-0.754c-0.295,0-0.599,0.043-0.91,0.13c-0.313,0.087-0.594,0.256-0.845,0.507
			c-0.252,0.252-0.455,0.603-0.611,1.053c-0.156,0.451-0.234,1.04-0.234,1.769v7.046c-0.624,0.104-1.239,0.156-1.846,0.156
			c-0.607,0-1.222-0.053-1.846-0.156V8.972z"/>
		<path fill="#F9F9F9" d="M144.94,11.78h-1.742c-0.052-0.226-0.091-0.464-0.116-0.715c-0.026-0.251-0.039-0.49-0.039-0.716
			c0-0.468,0.052-0.927,0.155-1.378h5.356v13.442c-0.624,0.104-1.231,0.156-1.82,0.156c-0.572,0-1.17-0.053-1.794-0.156V11.78z
			 M144.395,6.71c-0.104-0.589-0.156-1.17-0.156-1.742c0-0.555,0.053-1.135,0.156-1.742c0.295-0.052,0.611-0.091,0.949-0.117
			c0.338-0.026,0.646-0.039,0.923-0.039c0.295,0,0.615,0.013,0.962,0.039c0.347,0.026,0.667,0.065,0.962,0.117
			c0.052,0.295,0.087,0.585,0.104,0.871c0.017,0.286,0.025,0.576,0.025,0.871c0,0.277-0.009,0.563-0.025,0.858
			c-0.018,0.295-0.053,0.59-0.104,0.884c-0.295,0.052-0.611,0.087-0.949,0.104c-0.338,0.017-0.654,0.025-0.948,0.025
			c-0.278,0-0.59-0.009-0.937-0.025C145.01,6.797,144.689,6.762,144.395,6.71z"/>
		<path fill="#F9F9F9" d="M154.82,8.972c0.624-0.104,1.239-0.155,1.846-0.155s1.223,0.052,1.847,0.155v7.124
			c0,0.711,0.056,1.296,0.169,1.755c0.112,0.46,0.286,0.824,0.52,1.093c0.234,0.269,0.524,0.459,0.871,0.571
			c0.347,0.113,0.754,0.169,1.222,0.169c0.642,0,1.179-0.061,1.612-0.182V8.972c0.624-0.104,1.23-0.155,1.82-0.155
			c0.606,0,1.222,0.052,1.846,0.155v12.923c-0.555,0.19-1.287,0.377-2.197,0.559c-0.909,0.182-1.858,0.272-2.847,0.272
			c-0.884,0-1.733-0.069-2.548-0.208c-0.815-0.138-1.53-0.433-2.146-0.884c-0.615-0.45-1.104-1.108-1.469-1.976
			c-0.364-0.866-0.546-2.02-0.546-3.458V8.972z"/>
		<path fill="#F9F9F9" d="M175.386,16.564c-0.971-0.277-1.729-0.689-2.275-1.235c-0.546-0.546-0.818-1.365-0.818-2.457
			c0-1.317,0.472-2.349,1.417-3.094c0.944-0.745,2.231-1.118,3.86-1.118c0.677,0,1.344,0.061,2.003,0.182
			c0.658,0.122,1.325,0.304,2.002,0.546c-0.035,0.451-0.122,0.919-0.261,1.404s-0.303,0.91-0.494,1.274
			c-0.415-0.174-0.875-0.325-1.378-0.455s-1.031-0.195-1.586-0.195c-0.589,0-1.049,0.091-1.378,0.273
			c-0.329,0.182-0.494,0.472-0.494,0.871c0,0.381,0.117,0.649,0.352,0.806c0.233,0.156,0.567,0.304,1.001,0.441l1.481,0.442
			c0.485,0.139,0.924,0.308,1.313,0.507s0.724,0.446,1.001,0.741s0.494,0.659,0.65,1.092c0.155,0.434,0.233,0.962,0.233,1.586
			c0,0.642-0.134,1.24-0.402,1.794c-0.27,0.556-0.659,1.036-1.171,1.443c-0.511,0.407-1.131,0.728-1.858,0.962
			c-0.729,0.234-1.552,0.351-2.47,0.351c-0.416,0-0.798-0.013-1.145-0.038c-0.347-0.026-0.681-0.07-1.001-0.131
			c-0.321-0.061-0.637-0.134-0.949-0.221c-0.312-0.086-0.649-0.199-1.014-0.338c0.034-0.468,0.117-0.94,0.247-1.417
			s0.299-0.94,0.507-1.391c0.572,0.226,1.113,0.395,1.625,0.507c0.511,0.112,1.044,0.169,1.599,0.169
			c0.243,0,0.508-0.021,0.793-0.065c0.286-0.043,0.551-0.121,0.793-0.233c0.243-0.113,0.446-0.261,0.611-0.442
			s0.247-0.42,0.247-0.715c0-0.416-0.126-0.715-0.377-0.897c-0.251-0.182-0.603-0.342-1.053-0.48L175.386,16.564z"/>
	</g>
	<g>
		<path fill="#F7F7F7" d="M55.719,30.469c-0.4-0.137-0.818-0.285-1.346-0.285c-0.967,0-1.279,0.868-1.279,1.691
			c0,0.819,0.313,1.687,1.279,1.687c0.577,0,0.956-0.148,1.346-0.373v0.456c-0.412,0.241-0.818,0.313-1.346,0.313
			c-1.23,0-1.84-0.944-1.84-2.082c0-1.143,0.615-2.087,1.84-2.087c0.489,0,0.923,0.077,1.346,0.182V30.469z"/>
		<path fill="#F7F7F7" d="M57.395,29.887h0.527v1.703h1.929v-1.703h0.527v3.972h-0.527v-1.873h-1.929v1.873h-0.527V29.887z"/>
		<path fill="#F7F7F7" d="M62.262,29.887h1.286c0.406,0,1.071,0.214,1.071,1c0,0.489-0.357,0.956-0.813,1.115l1.324,1.856h-0.653
			l-1.148-1.687h-0.539v1.687h-0.527V29.887z M62.789,31.755c0.072,0.011,0.148,0.021,0.226,0.021c0.665,0,1.044-0.291,1.044-0.873
			c0-0.385-0.313-0.621-0.747-0.621h-0.522V31.755z"/>
		<path fill="#F7F7F7" d="M66.568,29.887h0.527v3.972h-0.527V29.887z"/>
		<path fill="#F7F7F7" d="M68.73,33.244c0.357,0.17,0.709,0.318,1.115,0.318c0.39,0,0.741-0.23,0.741-0.643
			c0-0.961-1.835-0.95-1.835-2.076c0-0.346,0.27-1.055,1.192-1.055c0.318,0,0.626,0.049,0.929,0.159v0.489
			c-0.309-0.121-0.604-0.253-0.939-0.253c-0.483,0-0.688,0.346-0.688,0.565c0,0.813,1.868,0.879,1.868,2.076
			c0,0.385-0.28,1.132-1.351,1.132c-0.352,0-0.698-0.077-1.033-0.181V33.244z"/>
		<path fill="#F7F7F7" d="M73.712,30.283h-1.406v-0.396h3.34v0.396h-1.406v3.576h-0.527V30.283z"/>
		<path fill="#F7F7F7" d="M77.074,29.887h2.186v0.396h-1.658v1.308h1.395v0.396h-1.395v1.478h1.773v0.396h-2.301V29.887z"/>
		<path fill="#F7F7F7" d="M80.879,29.887h0.527v3.576h1.791v0.396h-2.318V29.887z"/>
		<path fill="#F7F7F7" d="M84.637,29.887h0.527v3.972h-0.527V29.887z"/>
		<path fill="#F7F7F7" d="M86.029,34.123c0.176,0.061,0.367,0.104,0.555,0.104c0.576,0,0.588-0.462,0.588-0.912v-3.428h0.527v3.532
			c0,0.506-0.198,1.236-1.209,1.236c-0.159,0-0.313-0.017-0.461-0.05V34.123z"/>
		<path fill="#F7F7F7" d="M89.58,29.887h0.527v1.956h0.012l1.582-1.956h0.511l-1.505,1.852l1.851,2.12h-0.725l-1.726-2.016v2.016
			H89.58V29.887z"/>
		<path fill="#F7F7F7" d="M93.997,29.887h2.187v0.396h-1.659v1.308h1.396v0.396h-1.396v1.478h1.774v0.396h-2.302V29.887z"/>
		<path fill="#F7F7F7" d="M100.119,33.244c0.356,0.17,0.708,0.318,1.114,0.318c0.39,0,0.741-0.23,0.741-0.643
			c0-0.961-1.834-0.95-1.834-2.076c0-0.346,0.27-1.055,1.191-1.055c0.319,0,0.627,0.049,0.929,0.159v0.489
			c-0.308-0.121-0.604-0.253-0.939-0.253c-0.483,0-0.687,0.346-0.687,0.565c0,0.813,1.867,0.879,1.867,2.076
			c0,0.385-0.279,1.132-1.351,1.132c-0.352,0-0.698-0.077-1.032-0.181V33.244z"/>
		<path fill="#F7F7F7" d="M107.11,30.469c-0.401-0.137-0.819-0.285-1.347-0.285c-0.967,0-1.279,0.868-1.279,1.691
			c0,0.819,0.313,1.687,1.279,1.687c0.577,0,0.957-0.148,1.347-0.373v0.456c-0.412,0.241-0.819,0.313-1.347,0.313
			c-1.23,0-1.84-0.944-1.84-2.082c0-1.143,0.615-2.087,1.84-2.087c0.489,0,0.924,0.077,1.347,0.182V30.469z"/>
		<path fill="#F7F7F7" d="M108.786,29.887h0.527v1.703h1.929v-1.703h0.527v3.972h-0.527v-1.873h-1.929v1.873h-0.527V29.887z"/>
		<path fill="#F7F7F7" d="M113.423,31.875c0-1.143,0.615-2.087,1.841-2.087c1.225,0,1.834,0.944,1.834,2.087
			c0,1.138-0.609,2.082-1.834,2.082C114.033,33.958,113.423,33.013,113.423,31.875z M116.537,31.875
			c0-0.823-0.313-1.691-1.273-1.691c-0.967,0-1.28,0.868-1.28,1.691c0,0.819,0.313,1.687,1.28,1.687
			C116.225,33.562,116.537,32.695,116.537,31.875z"/>
		<path fill="#F7F7F7" d="M118.752,29.887h0.527v3.576h1.791v0.396h-2.318V29.887z"/>
		<path fill="#F7F7F7" d="M122.509,29.887h2.187v0.396h-1.659v1.308h1.396v0.396h-1.396v1.478h1.774v0.396h-2.302V29.887z"/>
		<path fill="#F7F7F7" d="M126.314,29.887h0.533l2.01,3.137h0.012v-3.137h0.461v3.972h-0.527l-2.016-3.137h-0.012v3.137h-0.461
			V29.887z"/>
		<path fill="#F7F7F7" d="M134.176,33.75c-0.406,0.131-0.824,0.208-1.352,0.208c-1.23,0-1.84-0.944-1.84-2.082
			c0-1.143,0.615-2.087,1.84-2.087c0.489,0,0.924,0.077,1.347,0.182v0.499c-0.401-0.137-0.819-0.285-1.347-0.285
			c-0.967,0-1.279,0.868-1.279,1.691c0,0.819,0.313,1.687,1.279,1.687c0.385,0,0.61-0.027,0.824-0.109v-1.182h0.527V33.75z"/>
		<path fill="#F7F7F7" d="M136.018,29.887h2.186v0.396h-1.658v1.308h1.395v0.396h-1.395v1.478h1.773v0.396h-2.301V29.887z"/>
		<path fill="#F7F7F7" d="M139.822,29.887h0.748l1.109,3.126h0.011l1.143-3.126h0.665v3.972h-0.494v-3.273h-0.012l-1.099,3.01
			h-0.527l-1.071-3.01h-0.011v3.273h-0.462V29.887z"/>
		<path fill="#F7F7F7" d="M145.383,29.887h2.187v0.396h-1.659v1.308h1.396v0.396h-1.396v1.478h1.775v0.396h-2.303V29.887z"/>
		<path fill="#F7F7F7" d="M149.189,29.887h2.186v0.396h-1.659v1.308h1.396v0.396h-1.396v1.478h1.775v0.396h-2.302V29.887z"/>
		<path fill="#F7F7F7" d="M152.995,29.887h0.533l2.01,3.137h0.012v-3.137h0.461v3.972h-0.527l-2.016-3.137h-0.012v3.137h-0.461
			V29.887z"/>
		<path fill="#F7F7F7" d="M157.649,33.244c0.356,0.17,0.708,0.318,1.114,0.318c0.39,0,0.741-0.23,0.741-0.643
			c0-0.961-1.834-0.95-1.834-2.076c0-0.346,0.27-1.055,1.191-1.055c0.319,0,0.627,0.049,0.929,0.159v0.489
			c-0.308-0.121-0.604-0.253-0.939-0.253c-0.483,0-0.687,0.346-0.687,0.565c0,0.813,1.867,0.879,1.867,2.076
			c0,0.385-0.279,1.132-1.351,1.132c-0.352,0-0.698-0.077-1.032-0.181V33.244z"/>
		<path fill="#F7F7F7" d="M164.641,30.469c-0.401-0.137-0.819-0.285-1.347-0.285c-0.967,0-1.279,0.868-1.279,1.691
			c0,0.819,0.313,1.687,1.279,1.687c0.577,0,0.957-0.148,1.347-0.373v0.456c-0.412,0.241-0.819,0.313-1.347,0.313
			c-1.23,0-1.84-0.944-1.84-2.082c0-1.143,0.615-2.087,1.84-2.087c0.489,0,0.924,0.077,1.347,0.182V30.469z"/>
		<path fill="#F7F7F7" d="M166.316,29.887h0.527v1.703h1.929v-1.703h0.527v3.972h-0.527v-1.873h-1.929v1.873h-0.527V29.887z"/>
		<path fill="#F7F7F7" d="M172.288,29.887h0.527l1.57,3.972h-0.565l-0.45-1.126h-1.747l-0.444,1.126h-0.462L172.288,29.887z
			 M173.216,32.337l-0.719-1.813l-0.715,1.813H173.216z"/>
		<path fill="#F7F7F7" d="M175.76,29.887h1.285c0.571,0,1.11,0.28,1.11,1.033c0,1.12-0.929,1.367-1.868,1.356v1.582h-0.527V29.887z
			 M176.287,31.881c0.791,0.044,1.308-0.187,1.308-0.917c0-0.5-0.374-0.682-0.692-0.682h-0.615V31.881z"/>
	</g>
	<g>
	</g>
	<g>
	</g>
	<g>
	</g>
	<g>
	</g>
	<g>
	</g>
	<g>
	</g>
	<g>
	</g>
</g>
</svg>
